<?xml version="1.0" encoding="UTF-8"?>
<svg width="36px" height="54px" viewBox="0 0 36 54" version="1.1" xmlns="http://www.w3.org/2000/svg" xmlns:xlink="http://www.w3.org/1999/xlink">
    <!-- Generator: Sketch 55.2 (78181) - https://sketchapp.com -->
    <title>Artboard</title>
    <desc>Created with Sketch.</desc>
    <g id="Artboard" stroke="none" stroke-width="1" fill="none" fill-rule="evenodd">
        <g id="check" transform="translate(0.000000, 18.000000)" fill-rule="nonzero">
            <path d="M18,0 C8.07440189,0 0,8.07440189 0,18 C0,27.9255981 8.07440189,36 18,36 C27.9255981,36 36,27.9255981 36,18 C36,8.07440189 27.9255981,0 18,0 Z" id="Path" fill="#DE5F13"></path>
            <path d="M27.5508642,13.6110333 L17.5937248,23.5516661 C17.2950022,23.849902 16.9028762,24 16.5107502,24 C16.1186241,24 15.7264982,23.849902 15.4277756,23.5516661 L10.4493461,18.5813497 C9.85021796,17.983478 9.85021796,17.016802 10.4493461,16.4189303 C11.0481937,15.8207785 12.0161671,15.8207785 12.6152953,16.4189303 L16.5107502,20.308037 L25.3849151,11.4486138 C25.9837627,10.8504621 26.9517361,10.8504621 27.5508642,11.4486138 C28.1497119,12.0464855 28.1497119,13.0128815 27.5508642,13.6110333 Z" id="Path" fill="#FAFAFA"></path>
        </g>
    </g>
</svg>