<?xml version="1.0" encoding="UTF-8"?>
<svg width="232px" height="232px" viewBox="0 0 232 232" version="1.1" xmlns="http://www.w3.org/2000/svg" xmlns:xlink="http://www.w3.org/1999/xlink">
    <!-- Generator: Sketch 55.2 (78181) - https://sketchapp.com -->
    <title>Artboard Copy 4</title>
    <desc>Created with Sketch.</desc>
    <g id="Artboard-Copy-4" stroke="none" stroke-width="1" fill="none" fill-rule="evenodd">
        <g id="linkedin" transform="translate(10.000000, 9.000000)">
            <g id="g3019" transform="translate(106.500000, 107.000000) scale(-1, 1) rotate(-180.000000) translate(-106.500000, -107.000000) ">
                <path d="M0.273678879,198.597436 C0.273678879,207.056826 7.30811116,213.918649 15.9859314,213.918649 L197.181745,213.918649 C205.859279,213.918649 212.893998,207.056826 212.893998,198.597436 L212.893998,15.3573263 C212.893998,6.89507812 205.859279,0.0361130431 197.181745,0.0361130431 L15.9859314,0.0361130431 C7.30811116,0.0361130431 0.273678879,6.89507812 0.273678879,15.3573263 L0.273678879,198.597436 L0.273678879,198.597436 Z" id="path14" fill="#000000" fill-rule="nonzero"></path>
                <path d="M64.7254781,34.8767977 L64.7254781,131.456742 L32.6110819,131.456742 L32.6110819,34.8767977 L64.7254781,34.8767977 Z M48.668137,144.643102 C59.8670767,144.643102 66.837466,152.059358 66.837466,161.327535 C66.6287546,170.804338 59.8670767,178.014825 48.8805652,178.014825 C37.8951973,178.014825 30.7126657,170.804338 30.7126657,161.327535 C30.7126657,152.059358 37.6816255,144.643102 48.4588538,144.643102 L48.6675652,144.643102 L48.668137,144.643102 Z" id="path28" fill="#FFFFFF"></path>
                <path d="M82.4953964,34.8767977 L114.609507,34.8767977 L114.609507,88.8111264 C114.609507,91.6976075 114.818218,94.5812308 115.666215,96.6446361 C117.987773,102.411883 123.271888,108.384898 132.143553,108.384898 C143.764204,108.384898 148.41275,99.5282593 148.41275,86.54481 L148.41275,34.8767977 L180.524287,34.8767977 L180.524287,90.254367 C180.524287,119.919391 164.680804,133.723058 143.552061,133.723058 C126.227299,133.723058 118.621626,124.043344 114.395935,117.450163 L114.610364,117.450163 L114.610364,131.456742 L82.4953964,131.456742 C82.9176796,122.394334 82.4953964,34.8767977 82.4953964,34.8767977 L82.4953964,34.8767977 Z" id="path30" fill="#FFFFFF"></path>
            </g>
        </g>
    </g>
</svg>