<?xml version="1.0" encoding="UTF-8"?>
<svg width="267px" height="267px" viewBox="0 0 267 267" version="1.1" xmlns="http://www.w3.org/2000/svg" xmlns:xlink="http://www.w3.org/1999/xlink">
    <!-- Generator: Sketch 55.2 (78181) - https://sketchapp.com -->
    <title>Artboard Copy 9</title>
    <desc>Created with Sketch.</desc>
    <defs>
        <linearGradient x1="37.6228663%" y1="64.6531707%" x2="88.1558549%" y2="7.4743026%" id="linearGradient-1">
            <stop stop-color="#FFFFFF" offset="0%"></stop>
            <stop stop-color="#000000" offset="25.1791888%"></stop>
            <stop stop-color="#FF6D16" offset="100%"></stop>
        </linearGradient>
    </defs>
    <g id="Artboard-Copy-9" stroke="none" stroke-width="1" fill="none" fill-rule="evenodd">
        <g id="abstract" transform="translate(11.000000, 12.000000)" fill="url(#linearGradient-1)" fill-rule="nonzero">
            <path d="M239.564051,0 L175.331447,0 C143.567871,0 117.724479,25.8433917 117.724479,57.6069681 L117.724479,116.965989 L58.365458,116.965989 C26.6018815,116.965989 0.75848984,142.809381 0.75848984,174.572957 L0.75848984,238.805561 C0.75848984,241.499434 2.93819979,243.679144 5.63207273,243.679144 L69.8646768,243.679144 C101.628253,243.679144 127.471645,217.835753 127.471645,186.072176 L127.471645,126.713155 L186.830666,126.713155 C218.594243,126.713155 244.437634,100.869763 244.437634,69.106187 L244.437634,4.87358289 C244.437634,2.17970995 242.257924,0 239.564051,0 Z M117.724479,186.072176 C117.724479,212.462628 96.2551281,233.931979 69.8646768,233.931979 L10.5056556,233.931979 L10.5056556,174.572957 C10.5056556,148.182506 31.9750066,126.713155 58.365458,126.713155 L117.724479,126.713155 L117.724479,186.072176 Z" id="Shape"></path>
        </g>
    </g>
</svg>