<?xml version="1.0" encoding="UTF-8"?>
<svg width="232px" height="232px" viewBox="0 0 232 232" version="1.1" xmlns="http://www.w3.org/2000/svg" xmlns:xlink="http://www.w3.org/1999/xlink">
    <!-- Generator: Sketch 55.2 (78181) - https://sketchapp.com -->
    <title>Artboard Copy 4</title>
    <desc>Created with Sketch.</desc>
    <g id="Artboard-Copy-4" stroke="none" stroke-width="1" fill="none" fill-rule="evenodd">
        <g id="twitter" transform="translate(0.000000, 27.000000)" fill="#000000" fill-rule="nonzero">
            <path d="M232,22.3155 C223.3725,26.1 214.1795,28.6085 204.595,29.8265 C214.455,23.9395 221.9805,14.6885 225.5185,3.538 C216.3255,9.019 206.1755,12.8905 195.3585,15.051 C186.6295,5.7565 174.1885,0 160.6165,0 C134.2845,0 113.0855,21.373 113.0855,47.5745 C113.0855,51.3445 113.4045,54.9695 114.1875,58.4205 C74.646,56.492 39.6575,37.5405 16.153,8.671 C12.0495,15.7905 9.6425,23.9395 9.6425,32.712 C9.6425,49.184 18.125,63.7855 30.769,72.239 C23.1275,72.094 15.631,69.8755 9.28,66.381 C9.28,66.526 9.28,66.7145 9.28,66.903 C9.28,90.016 25.7665,109.214 47.386,113.6365 C43.5145,114.695 39.295,115.2025 34.916,115.2025 C31.871,115.2025 28.797,115.0285 25.9115,114.3905 C32.074,133.226 49.561,147.0735 70.354,147.523 C54.172,160.1815 33.6255,167.8085 11.3825,167.8085 C7.482,167.8085 3.741,167.6345 -5.68434189e-14,167.156 C21.0685,180.7425 46.0375,188.5 72.964,188.5 C160.486,188.5 208.336,116 208.336,53.157 C208.336,51.0545 208.2635,49.0245 208.162,47.009 C217.6015,40.31 225.533,31.9435 232,22.3155 Z" id="Path"></path>
        </g>
    </g>
</svg>